<svg enable-background="new 0 0 120 120" height="120" viewBox="0 0 120 120" width="120" xmlns="http://www.w3.org/2000/svg"><g fill="#010101"><path d="m55.875 94.891s-7.875-11.482-27.938-11.482c-18.381-.001-27.937 5.342-27.937 5.342v-74.224s9.556-5.341 27.938-5.466c20.062-.135 27.937 11.606 27.937 11.606z"/><path d="m64.026 94.891s7.875-11.482 27.938-11.482c18.382 0 27.938 5.343 27.938 5.343v-74.225s-9.556-5.341-27.938-5.466c-20.063-.135-27.938 11.606-27.938 11.606z"/><path d="m60.091 118s-12.091-17.425-32.153-17.425c-18.382 0-27.938 5.343-27.938 5.343v-8.893s9.556-5.341 27.938-5.466c20.062-.135 32.153 17.548 32.153 17.548z"/><path d="m60.092 118s12.091-17.425 32.153-17.425c18.382 0 27.938 5.343 27.938 5.343v-8.893s-9.556-5.341-27.938-5.466c-20.062-.136-32.153 17.548-32.153 17.548z"/></g></svg>