<?xml version="1.0" encoding="UTF-8" standalone="no"?>

<svg version="1.1" id="svg62" width="484.43802" height="484.43802" viewBox="0 0 484.43802 484.43802" sodipodi:docname="icon.svg" inkscape:version="1.2.2 (b0a8486541, 2022-12-01)" xmlns:inkscape="http://www.inkscape.org/namespaces/inkscape" xmlns:sodipodi="http://sodipodi.sourceforge.net/DTD/sodipodi-0.dtd" xmlns:xlink="http://www.w3.org/1999/xlink" xmlns="http://www.w3.org/2000/svg" xmlns:svg="http://www.w3.org/2000/svg">
	<defs id="defs66">
		<inkscape:path-effect effect="ruler" id="path-effect10826" is_visible="true" lpeversion="1" unit="px" mark_distance="20" mark_length="15" minor_mark_length="15" major_mark_steps="5" shift="0" offset="0" mark_dir="left" border_marks="none" />
		<linearGradient inkscape:collect="always" id="linearGradient6433">
			<stop style="stop-color: #007efd; stop-opacity: 1" offset="0" id="stop6429" />
			<stop style="stop-color: #46a2fd; stop-opacity: 1" offset="0.41309747" id="stop7127" />
			<stop style="stop-color: #7dbdfd; stop-opacity: 1" offset="1" id="stop6431" />
		</linearGradient>
		<linearGradient inkscape:collect="always" xlink:href="#linearGradient6433" id="linearGradient6435" x1="527.81061" y1="520.01709" x2="527.81061" y2="235.13054" gradientUnits="userSpaceOnUse" spreadMethod="pad" gradientTransform="translate(-87.371362,110.01609)" />
		<linearGradient inkscape:collect="always" xlink:href="#linearGradient6433" id="linearGradient8229" gradientUnits="userSpaceOnUse" gradientTransform="matrix(0.87208267,0,0,0.87208267,-13.338564,158.54685)" x1="527.81061" y1="520.01709" x2="527.81061" y2="235.13054" spreadMethod="pad" />
	</defs>
	<sodipodi:namedview id="namedview64" pagecolor="#ffffff" bordercolor="#000000" borderopacity="0.25" inkscape:showpageshadow="2" inkscape:pageopacity="0.0" inkscape:pagecheckerboard="0" inkscape:deskcolor="#d1d1d1" showgrid="false" inkscape:zoom="0.50383782" inkscape:cx="160.76602" inkscape:cy="684.74416" inkscape:window-width="1366" inkscape:window-height="734" inkscape:window-x="-1" inkscape:window-y="0" inkscape:window-maximized="0" inkscape:current-layer="layer1" />
	<g inkscape:groupmode="layer" inkscape:label="Image" id="g68" transform="translate(-249.16498,-247.18881)">
		<g inkscape:groupmode="layer" id="layer1" inkscape:label="logo">
			<circle style="mix-blend-mode: normal; fill: url(#linearGradient6435); fill-opacity: 1; fill-rule: nonzero; stroke: #000000; stroke-width: 5; stroke-dasharray: none; stroke-dashoffset: 0; stroke-opacity: 1" id="circle8225" r="239.71902" cy="489.40784" cx="491.384" inkscape:export-filename="icon.svg" inkscape:export-xdpi="96" inkscape:export-ydpi="96" />
			<circle style="mix-blend-mode: normal; fill: url(#linearGradient8229); fill-opacity: 1; fill-rule: nonzero; stroke: #000000; stroke-width: 5; stroke-dasharray: none; stroke-dashoffset: 0; stroke-opacity: 1" id="circle8227" cy="489.40784" cx="491.384" inkscape:label="circle8227" r="209.05479" />
			<path id="path9764" style="fill: #ffffff; fill-opacity: 1; fill-rule: nonzero; stroke: #000000; stroke-width: 6.12237; stroke-dasharray: none; stroke-dashoffset: 0; stroke-opacity: 1" inkscape:label="path9764" d="m 412.07422,324.85352 c -3.53984,0.0682 -7.04649,0.87237 -10.47461,2.55078 -27.42499,13.42721 -14.38908,65.49218 -1.07227,93.14453 7.86441,16.33042 22.43939,37.76921 38.69336,49.88672 -16.25422,15.27971 -30.82884,42.31573 -38.69336,62.9082 -13.31681,34.86883 -26.35272,100.52179 1.07227,117.45313 27.42499,16.93132 59.94295,-36.69369 73.25977,-71.5625 7.01992,-18.38101 13.91646,-45.29306 14.89257,-69.13477 h 3.26367 c 0.97612,23.84171 7.87266,50.75376 14.89258,69.13477 13.31682,34.86881 45.83478,88.49382 73.25977,71.5625 27.425,-16.93134 14.38908,-82.5843 1.07226,-117.45313 -7.86451,-20.59247 -22.43912,-47.62849 -38.69335,-62.9082 16.25396,-12.11751 30.82895,-33.5563 38.69335,-49.88672 13.31682,-27.65235 26.35274,-79.71732 -1.07226,-93.14453 -3.42812,-1.6784 -6.93478,-2.48261 -10.47461,-2.55078 -24.77883,-0.47721 -51.13294,35.10692 -62.78516,59.30273 -6.01783,12.49602 -11.94151,29.9684 -14.13476,46.61523 h -4.7793 c -2.19325,-16.64683 -8.11693,-34.11921 -14.13476,-46.61523 -11.65222,-24.1958 -38.00634,-59.77994 -62.78516,-59.30273 l 0.28894,14.99722 m -18.07055,-7.05501 10.9642,10.23652 m -18.9918,7.76501 14.80227,2.42752 m -15.08774,17.51305 14.92137,-1.53384 m -11.29759,21.18407 14.52571,-3.74217 m -8.40412,22.77047 13.98924,-5.41304 m -5.57274,23.53852 13.13971,-7.23519 m -2.47336,24.13995 12.19434,-8.73488 m 0.48569,24.1808 10.86089,-10.34607 m -2.11775,23.8489 10.81032,10.3989 m -23.33119,5.16948 12.34097,8.52645 m -22.80199,8.5094 13.14931,7.21773 m -21.9957,10.71242 13.72884,6.0431 m -20.88473,12.62421 14.24605,4.69576 m -19.74351,14.52859 14.57013,3.5653 m -18.5443,16.03018 14.81357,2.35758 m -16.94652,17.51855 14.98189,0.73691 m -14.36444,19.22754 14.87571,-1.92701 m -9.19561,20.98384 13.14021,-7.23428 m 1.57865,20.04451 4.44476,-14.32634 m 14.7368,11.28525 -7.42536,-13.03319 m 22.65377,0.19346 -11.11355,-10.07417 m 23.28318,-5.77415 -12.48828,-8.30921 m 22.69333,-8.88202 -13.24349,-7.04345 m 21.86179,-10.99751 -13.80539,-5.86611 m 20.71362,-12.89451 -14.30065,-4.52676 m 19.58066,-14.75851 -14.60949,-3.40043 m 18.34555,-16.24154 -14.84377,-2.15928 m 18.14131,-16.21643 v -15 m 3.46954,33.17698 14.84581,-2.14519 m -11.12637,21.7903 14.61213,-3.38905 m -9.34719,22.67845 14.30438,-4.51492 m -7.41408,23.28216 13.81083,-5.85329 m -5.2083,23.90176 13.24967,-7.0318 m -3.06155,24.23312 12.49782,-8.29485 m -0.35176,24.1615 11.13362,-10.05198 m 4.05528,22.94078 7.49047,-12.99588 m 11.67324,16.19536 -4.30264,-14.36966 m 19.11623,1.67652 -13.09915,-7.30836 m 18.85055,-11.725 -14.87096,-1.96325 m 15.52418,-17.99974 -14.98285,0.71692 m 12.87164,-20.5953 -14.81572,2.34403 m 10.85773,-21.94276 -14.57287,3.55408 m 9.09053,-22.78276 -14.25005,4.6836 m 7.1122,-23.35782 -13.73432,6.03062 m 4.90367,-23.96853 -13.15582,7.20587 m 2.7123,-24.25251 -12.35136,8.5114 m -0.14451,-24.10019 -10.83314,10.37512 m 19.2986,-23.87754 -10.84328,-10.36451 m 23.5449,-5.06351 -12.18376,-8.74963 m 22.87017,-8.14247 -13.13054,-7.25182 m 21.57145,-10.86228 -13.98282,-5.42963 m 20.12676,-13.59147 -14.52102,-3.76032 m 18.1743,-15.8846 -14.91848,-1.56172 m 14.68585,-18.38037 -14.81137,2.37135 m 6.8881,-20.42377 -11.04561,10.14863 m -6.6717,-18.2335 -0.40702,14.99447 m -18.48708,-9.29635 7.68109,12.88413 m -23.20795,-0.36103 10.66064,10.55228 m -23.57539,4.69602 12.08028,8.89194 m -22.96222,7.87505 13.03764,7.41754 m -21.73442,10.57488 13.91513,5.60082 m -20.28109,13.34715 14.47377,3.93825 m -19.17385,14.79815 v 15 m -6.98414,-30.77668 -14.54538,3.66496 m 8.51997,-22.72385 -14.01559,5.34447 m 5.69064,-23.51224 -13.17545,7.16992 m 2.59626,-24.12951 -12.24269,8.66698 m -0.33977,-24.19298 -10.93606,10.26657 m -4.12829,-23.35742 -8.33647,12.4701 m -10.08675,-19.70685 -1.33209,14.94073" inkscape:path-effect="#path-effect10826" inkscape:original-d="m 412.07422,324.85352 c -3.53984,0.0682 -7.04649,0.87237 -10.47461,2.55078 -27.42499,13.42721 -14.38908,65.49218 -1.07227,93.14453 7.86441,16.33042 22.43939,37.76921 38.69336,49.88672 -16.25422,15.27971 -30.82884,42.31573 -38.69336,62.9082 -13.31681,34.86883 -26.35272,100.52179 1.07227,117.45313 27.42499,16.93132 59.94295,-36.69369 73.25977,-71.5625 7.01992,-18.38101 13.91646,-45.29306 14.89257,-69.13477 h 3.26367 c 0.97612,23.84171 7.87266,50.75376 14.89258,69.13477 13.31682,34.86881 45.83478,88.49382 73.25977,71.5625 27.425,-16.93134 14.38908,-82.5843 1.07226,-117.45313 -7.86451,-20.59247 -22.43912,-47.62849 -38.69335,-62.9082 16.25396,-12.11751 30.82895,-33.5563 38.69335,-49.88672 13.31682,-27.65235 26.35274,-79.71732 -1.07226,-93.14453 -3.42812,-1.6784 -6.93478,-2.48261 -10.47461,-2.55078 -24.77883,-0.47721 -51.13294,35.10692 -62.78516,59.30273 -6.01783,12.49602 -11.94151,29.9684 -14.13476,46.61523 h -4.7793 c -2.19325,-16.64683 -8.11693,-34.11921 -14.13476,-46.61523 -11.65222,-24.1958 -38.00634,-59.77994 -62.78516,-59.30273 z" />
		</g>
	</g>
</svg>
